<svg version="1.1" xmlns="http://www.w3.org/2000/svg" viewBox="0 0 1005.8975728352864 697.9515965779624" width="3017.6927185058594" height="2093.854789733887">
  <!-- svg-source:excalidraw -->
  
  <defs>
    <style class="style-fonts">
      @font-face {
        font-family: "Virgil";
        src: url("https://file%2B.vscode-resource.vscode-cdn.net/c%3A/Users/steve/.vscode/extensions/pomdtr.excalidraw-editor-3.5.1/public//dist/excalidraw-assets/Virgil.woff2");
      }
      @font-face {
        font-family: "Cascadia";
        src: url("https://file%2B.vscode-resource.vscode-cdn.net/c%3A/Users/steve/.vscode/extensions/pomdtr.excalidraw-editor-3.5.1/public//dist/excalidraw-assets/Cascadia.woff2");
      }
    </style>
  </defs>
  <rect x="0" y="0" width="1005.8975728352864" height="697.9515965779624" fill="#f1f3f5"></rect><g stroke-linecap="round" transform="translate(29.15140533447243 131.7014363606771) rotate(0 116.60697937011719 42.5)"><path d="M21.25 0 M21.25 0 C80.49 0.72, 143.7 0.96, 211.96 0 M21.25 0 C85.46 -2.32, 147.48 -0.73, 211.96 0 M211.96 0 C225.6 1.03, 233.51 5.55, 233.21 21.25 M211.96 0 C226.29 -1.62, 234.81 8.74, 233.21 21.25 M233.21 21.25 C232.07 34.65, 233.74 50.61, 233.21 63.75 M233.21 21.25 C233.87 31.79, 233.12 40.84, 233.21 63.75 M233.21 63.75 C231.87 79.62, 224.13 85.41, 211.96 85 M233.21 63.75 C232.24 77.1, 225.06 86.52, 211.96 85 M211.96 85 C167.36 85.9, 124.45 87.82, 21.25 85 M211.96 85 C161.19 83.04, 109.67 84.13, 21.25 85 M21.25 85 C5.81 85.45, -1.7 78.78, 0 63.75 M21.25 85 C6.97 84.22, 1.02 79.02, 0 63.75 M0 63.75 C-0.53 46.91, -0.92 30.07, 0 21.25 M0 63.75 C0.48 53.73, -1.11 41.42, 0 21.25 M0 21.25 C0.84 9.02, 6.98 -1.81, 21.25 0 M0 21.25 C0.69 6.91, 7.65 -0.75, 21.25 0" stroke="#000000" stroke-width="1" fill="none"></path></g><g transform="translate(45.258384704589616 136.7014363606771) rotate(0 100.5 37.5)"><text x="100.5" y="0" font-family="Virgil, Segoe UI Emoji" font-size="20px" fill="#000000" text-anchor="middle" style="white-space: pre;" direction="ltr" dominant-baseline="text-before-edge">Dataset </text><text x="100.5" y="25" font-family="Virgil, Segoe UI Emoji" font-size="20px" fill="#000000" text-anchor="middle" style="white-space: pre;" direction="ltr" dominant-baseline="text-before-edge">Analysis (About the </text><text x="100.5" y="50" font-family="Virgil, Segoe UI Emoji" font-size="20px" fill="#000000" text-anchor="middle" style="white-space: pre;" direction="ltr" dominant-baseline="text-before-edge">dataset)</text></g><g stroke-linecap="round" transform="translate(345.0042495727537 113.12505849202475) rotate(0 114.52365112304688 55)"><path d="M27.5 0 M27.5 0 C93.54 2, 157.93 1.84, 201.55 0 M27.5 0 C69.03 0.8, 113.04 0.09, 201.55 0 M201.55 0 C218.54 1.94, 230.14 9.68, 229.05 27.5 M201.55 0 C219.43 -0.17, 230.38 10.33, 229.05 27.5 M229.05 27.5 C229.3 49.43, 229.72 67.86, 229.05 82.5 M229.05 27.5 C228.43 42.92, 228.38 58.53, 229.05 82.5 M229.05 82.5 C229.86 100.25, 221.4 108.68, 201.55 110 M229.05 82.5 C229.48 102.49, 217.97 109.18, 201.55 110 M201.55 110 C145.25 110.63, 85.51 112.05, 27.5 110 M201.55 110 C165.45 109.2, 131.15 109.29, 27.5 110 M27.5 110 C9.29 111.78, -0.17 102.82, 0 82.5 M27.5 110 C10.29 107.74, -1.88 102.21, 0 82.5 M0 82.5 C-1.89 65.61, 0.96 46.29, 0 27.5 M0 82.5 C-1.11 66.11, -0.41 47.11, 0 27.5 M0 27.5 C-1.49 8.41, 8.58 1.45, 27.5 0 M0 27.5 C-2 9.7, 10.88 -1.75, 27.5 0" stroke="#000000" stroke-width="1" fill="none"></path></g><g transform="translate(370.02790069580055 128.12505849202475) rotate(0 89.5 40)"><text x="89.5" y="0" font-family="Virgil, Segoe UI Emoji" font-size="16px" fill="#000000" text-anchor="middle" style="white-space: pre;" direction="ltr" dominant-baseline="text-before-edge">Preparation For </text><text x="89.5" y="20" font-family="Virgil, Segoe UI Emoji" font-size="16px" fill="#000000" text-anchor="middle" style="white-space: pre;" direction="ltr" dominant-baseline="text-before-edge">Exploratory Analysis  </text><text x="89.5" y="40" font-family="Virgil, Segoe UI Emoji" font-size="16px" fill="#000000" text-anchor="middle" style="white-space: pre;" direction="ltr" dominant-baseline="text-before-edge">(Cleaning, Wrangling, &amp; </text><text x="89.5" y="60" font-family="Virgil, Segoe UI Emoji" font-size="16px" fill="#000000" text-anchor="middle" style="white-space: pre;" direction="ltr" dominant-baseline="text-before-edge">Merging)</text></g><g stroke-linecap="round" transform="translate(672.5813217163084 111.99656422932955) rotate(0 117.30142211914062 55)"><path d="M27.5 0 M27.5 0 C66.73 0.78, 103.38 2.73, 207.1 0 M27.5 0 C76.7 1.29, 124.71 1.11, 207.1 0 M207.1 0 C223.52 -1.23, 233.15 9.51, 234.6 27.5 M207.1 0 C224.27 -2.06, 234.19 7.25, 234.6 27.5 M234.6 27.5 C235.05 45.02, 234.87 61.09, 234.6 82.5 M234.6 27.5 C234.74 47.09, 234.73 66.32, 234.6 82.5 M234.6 82.5 C234.7 102.13, 227.3 110.59, 207.1 110 M234.6 82.5 C234.9 98.98, 223.61 110.34, 207.1 110 M207.1 110 C166.64 112.5, 130.57 110.92, 27.5 110 M207.1 110 C153.06 109.53, 98.22 109.27, 27.5 110 M27.5 110 C8.91 110.35, 0.22 102.46, 0 82.5 M27.5 110 C10.15 111.8, -0.6 99.25, 0 82.5 M0 82.5 C-1.19 68.89, -1.86 58.89, 0 27.5 M0 82.5 C0.18 71.75, 0.48 60.09, 0 27.5 M0 27.5 C0 7.8, 9.14 -0.97, 27.5 0 M0 27.5 C-1.79 8.38, 11.21 2.21, 27.5 0" stroke="#000000" stroke-width="1" fill="none"></path></g><g transform="translate(679.882743835449 116.99656422932955) rotate(0 110 50)"><text x="110" y="0" font-family="Virgil, Segoe UI Emoji" font-size="20px" fill="#000000" text-anchor="middle" style="white-space: pre;" direction="ltr" dominant-baseline="text-before-edge">Exploratory Analysis </text><text x="110" y="25" font-family="Virgil, Segoe UI Emoji" font-size="20px" fill="#000000" text-anchor="middle" style="white-space: pre;" direction="ltr" dominant-baseline="text-before-edge">(What does the </text><text x="110" y="50" font-family="Virgil, Segoe UI Emoji" font-size="20px" fill="#000000" text-anchor="middle" style="white-space: pre;" direction="ltr" dominant-baseline="text-before-edge">dataset appear to be</text><text x="110" y="75" font-family="Virgil, Segoe UI Emoji" font-size="20px" fill="#000000" text-anchor="middle" style="white-space: pre;" direction="ltr" dominant-baseline="text-before-edge">saying?)</text></g><g stroke-linecap="round" transform="translate(764.7669576009115 326.0880457560223) rotate(0 115.56530761718744 55)"><path d="M27.5 0 M27.5 0 C74.36 -3.54, 120.52 -0.85, 203.63 0 M27.5 0 C82.75 2.07, 140.03 2.61, 203.63 0 M203.63 0 C223.46 -1.59, 230.3 8.72, 231.13 27.5 M203.63 0 C221.06 0.56, 231.71 8.05, 231.13 27.5 M231.13 27.5 C232.48 47.02, 230.94 66.35, 231.13 82.5 M231.13 27.5 C232.29 46.08, 230.61 61.98, 231.13 82.5 M231.13 82.5 C229.29 101.57, 222.76 111.23, 203.63 110 M231.13 82.5 C231.3 101.52, 220.07 111.59, 203.63 110 M203.63 110 C148.39 112.13, 94.78 109.56, 27.5 110 M203.63 110 C149.25 110.09, 97.52 111.05, 27.5 110 M27.5 110 C9.77 110.64, 1.33 99.28, 0 82.5 M27.5 110 C7.98 108.91, 0.1 100.24, 0 82.5 M0 82.5 C1.42 66.43, 0.53 52.05, 0 27.5 M0 82.5 C0.74 60.83, 0.1 40.46, 0 27.5 M0 27.5 C-1.67 9.02, 10.98 -0.36, 27.5 0 M0 27.5 C-0.82 10.19, 10.29 -1.19, 27.5 0" stroke="#000000" stroke-width="1" fill="none"></path></g><g transform="translate(777.8322652180991 331.0880457560223) rotate(0 102.5 50)"><text x="102.5" y="0" font-family="Virgil, Segoe UI Emoji" font-size="20px" fill="#000000" text-anchor="middle" style="white-space: pre;" direction="ltr" dominant-baseline="text-before-edge">Feature Engineering </text><text x="102.5" y="25" font-family="Virgil, Segoe UI Emoji" font-size="20px" fill="#000000" text-anchor="middle" style="white-space: pre;" direction="ltr" dominant-baseline="text-before-edge">(Prepare Training &amp; </text><text x="102.5" y="50" font-family="Virgil, Segoe UI Emoji" font-size="20px" fill="#000000" text-anchor="middle" style="white-space: pre;" direction="ltr" dominant-baseline="text-before-edge">Validation Data For </text><text x="102.5" y="75" font-family="Virgil, Segoe UI Emoji" font-size="20px" fill="#000000" text-anchor="middle" style="white-space: pre;" direction="ltr" dominant-baseline="text-before-edge">Modeling)</text></g><g stroke-linecap="round" transform="translate(43.95713424682606 325.1910451253257) rotate(0 116.60699462890625 61.89234924316406)"><path d="M30.95 0 M30.95 0 C89.51 0.75, 145.76 -0.05, 202.27 0 M30.95 0 C74.8 0.9, 117.49 1.45, 202.27 0 M202.27 0 C222.44 1.32, 231.45 9.2, 233.21 30.95 M202.27 0 C222.11 -0.91, 235.05 8.06, 233.21 30.95 M233.21 30.95 C232.15 53.24, 233.65 73.15, 233.21 92.84 M233.21 30.95 C232.42 43.77, 233.39 57.08, 233.21 92.84 M233.21 92.84 C234.72 115.27, 223.32 124.08, 202.27 123.78 M233.21 92.84 C232.71 111.95, 221.06 122.19, 202.27 123.78 M202.27 123.78 C145.35 126.64, 90.33 125.84, 30.95 123.78 M202.27 123.78 C135.65 123.65, 68.04 123.45, 30.95 123.78 M30.95 123.78 C9.98 122.22, 1.61 111.56, 0 92.84 M30.95 123.78 C10.03 125.5, -2.29 115.03, 0 92.84 M0 92.84 C0.76 68.35, 2.21 43.67, 0 30.95 M0 92.84 C0.71 74.11, -0.01 56.78, 0 30.95 M0 30.95 C-0.86 9.25, 8.35 1.13, 30.95 0 M0 30.95 C-0.95 11.12, 11.17 0.73, 30.95 0" stroke="#000000" stroke-width="1" fill="none"></path></g><g transform="translate(51.06412887573231 362.08339436848973) rotate(0 109.5 25)"><text x="109.5" y="0" font-family="Virgil, Segoe UI Emoji" font-size="20px" fill="#000000" text-anchor="middle" style="white-space: pre;" direction="ltr" dominant-baseline="text-before-edge">Model Testing (2023 </text><text x="109.5" y="25" font-family="Virgil, Segoe UI Emoji" font-size="20px" fill="#000000" text-anchor="middle" style="white-space: pre;" direction="ltr" dominant-baseline="text-before-edge">Data)</text></g><g stroke-linecap="round" transform="translate(390.0399856567384 321.89236195882177) rotate(0 123.2042236328125 65.7117919921875)"><path d="M32 0 M32 0 C100.93 1.05, 172.82 0.44, 214.41 0 M32 0 C77.25 0.31, 122.58 -1.36, 214.41 0 M214.41 0 C236.98 0.46, 244.55 10.15, 246.41 32 M214.41 0 C236.78 -0.23, 248.6 8.67, 246.41 32 M246.41 32 C246.41 53.76, 246.05 75.9, 246.41 99.42 M246.41 32 C245.78 53.11, 247.25 74.82, 246.41 99.42 M246.41 99.42 C246.71 120.16, 234.41 132.44, 214.41 131.42 M246.41 99.42 C245.15 122.52, 234.92 133.6, 214.41 131.42 M214.41 131.42 C152.97 129.5, 96.58 129.05, 32 131.42 M214.41 131.42 C173.8 129.46, 133.75 130.08, 32 131.42 M32 131.42 C10.21 130.45, -0.78 119.3, 0 99.42 M32 131.42 C10.1 132.01, 2 120.49, 0 99.42 M0 99.42 C1.52 81.87, -0.05 64.6, 0 32 M0 99.42 C0.09 84.37, -0.08 69.22, 0 32 M0 32 C-1.48 12.35, 11.2 1.48, 32 0 M0 32 C-0.41 9.69, 10.07 -0.84, 32 0" stroke="#000000" stroke-width="1" fill="none"></path></g><g transform="translate(434.7442092895509 362.60415395100927) rotate(0 78.5 25)"><text x="78.5" y="0" font-family="Virgil, Segoe UI Emoji" font-size="20px" fill="#000000" text-anchor="middle" style="white-space: pre;" direction="ltr" dominant-baseline="text-before-edge">Model Selection </text><text x="78.5" y="25" font-family="Virgil, Segoe UI Emoji" font-size="20px" fill="#000000" text-anchor="middle" style="white-space: pre;" direction="ltr" dominant-baseline="text-before-edge">Validation</text></g><g stroke-linecap="round" transform="translate(10 560.0002110799155) rotate(0 120.77363586425781 63.97569274902344)"><path d="M31.99 0 M31.99 0 C76.75 -2.91, 121.11 -1.91, 209.56 0 M31.99 0 C99.75 1.39, 168.25 -0.39, 209.56 0 M209.56 0 C230.15 0.07, 242.46 11.83, 241.55 31.99 M209.56 0 C231.15 -0.63, 242.88 12.73, 241.55 31.99 M241.55 31.99 C242.95 51.66, 241.37 71.24, 241.55 95.96 M241.55 31.99 C240.87 47.47, 240.78 62.28, 241.55 95.96 M241.55 95.96 C240.53 116.19, 232.34 127.84, 209.56 127.95 M241.55 95.96 C241.5 117.86, 231.99 129.18, 209.56 127.95 M209.56 127.95 C163.19 125.81, 117.84 126.79, 31.99 127.95 M209.56 127.95 C163.68 125.98, 117.47 127.51, 31.99 127.95 M31.99 127.95 C11.12 129.23, -0.11 115.53, 0 95.96 M31.99 127.95 C9.88 126.04, 1.03 118.63, 0 95.96 M0 95.96 C2.18 73.55, 2.2 54.55, 0 31.99 M0 95.96 C-0.07 76.75, 0.33 58.72, 0 31.99 M0 31.99 C0.54 8.67, 12.52 0.47, 31.99 0 M0 31.99 C-0.26 11.33, 9.9 1.18, 31.99 0" stroke="#000000" stroke-width="1" fill="none"></path></g><g transform="translate(19.273635864257812 583.975903828939) rotate(0 111.5 40)"><text x="111.5" y="0" font-family="Virgil, Segoe UI Emoji" font-size="16px" fill="#000000" text-anchor="middle" style="white-space: pre;" direction="ltr" dominant-baseline="text-before-edge">Results(</text><text x="111.5" y="20" font-family="Virgil, Segoe UI Emoji" font-size="16px" fill="#000000" text-anchor="middle" style="white-space: pre;" direction="ltr" dominant-baseline="text-before-edge">What does the forecasting </text><text x="111.5" y="40" font-family="Virgil, Segoe UI Emoji" font-size="16px" fill="#000000" text-anchor="middle" style="white-space: pre;" direction="ltr" dominant-baseline="text-before-edge">say and does it make it </text><text x="111.5" y="60" font-family="Virgil, Segoe UI Emoji" font-size="16px" fill="#000000" text-anchor="middle" style="white-space: pre;" direction="ltr" dominant-baseline="text-before-edge">sense?)</text></g><g stroke-linecap="round"><g transform="translate(266.1848449707029 173.54169209798178) rotate(0 36.096680424725605 0.27454766284326126)"><path d="M1.07 -0.82 C13.01 -0.88, 60.19 -0.73, 72.02 -0.34 M0.18 1.37 C12.01 1.44, 59.72 1.07, 71.67 0.79" stroke="#000000" stroke-width="1" fill="none"></path></g><g transform="translate(266.1848449707029 173.54169209798178) rotate(0 36.096680424725605 0.27454766284326126)"><path d="M42.26 13.34 C51.71 9.55, 64.16 4.87, 72.51 2.68 M44.42 11.46 C51.6 8.99, 58.53 5.55, 72.28 1.15" stroke="#000000" stroke-width="1" fill="none"></path></g><g transform="translate(266.1848449707029 173.54169209798178) rotate(0 36.096680424725605 0.27454766284326126)"><path d="M41.97 -7.18 C51.53 -4.11, 64.07 -1.91, 72.51 2.68 M44.13 -9.05 C51.51 -6.19, 58.51 -4.29, 72.28 1.15" stroke="#000000" stroke-width="1" fill="none"></path></g></g><mask></mask><g stroke-linecap="round"><g transform="translate(583.2965087890623 167.52004687852724) rotate(0 41.54919965304424 0.00561756617084086)"><path d="M-0.34 -1.04 C13.75 -0.77, 69.35 0.66, 83.44 1.05 M1.68 1.03 C15.74 0.97, 68.97 -0.56, 82.7 -0.84" stroke="#000000" stroke-width="1" fill="none"></path></g><g transform="translate(583.2965087890623 167.52004687852724) rotate(0 41.54919965304424 0.00561756617084086)"><path d="M53.04 10.79 C61.43 9.82, 67.74 6.83, 83.54 -1.93 M53.79 9.61 C62.7 5.47, 73.08 2.87, 81.98 -0.26" stroke="#000000" stroke-width="1" fill="none"></path></g><g transform="translate(583.2965087890623 167.52004687852724) rotate(0 41.54919965304424 0.00561756617084086)"><path d="M52.53 -9.73 C60.94 -6.38, 67.36 -5.06, 83.54 -1.93 M53.28 -10.9 C62.34 -8.66, 72.87 -4.86, 81.98 -0.26" stroke="#000000" stroke-width="1" fill="none"></path></g></g><mask></mask><g stroke-linecap="round"><g transform="translate(842.5816586812214 233.47656758626314) rotate(0 1.1136280662024092 40.00168524328305)"><path d="M-0.66 1.02 C-0.36 14.18, 0.35 66.4, 0.59 79.5 M1.2 0.51 C1.97 13.28, 3.1 64.89, 2.85 77.76" stroke="#000000" stroke-width="1" fill="none"></path></g><g transform="translate(842.5816586812214 233.47656758626314) rotate(0 1.1136280662024092 40.00168524328305)"><path d="M-5.86 48.17 C-4.12 54.28, -1.82 62.97, 2.81 77.51 M-7.92 49.36 C-3.51 59.88, 0.02 69.17, 2.43 77.59" stroke="#000000" stroke-width="1" fill="none"></path></g><g transform="translate(842.5816586812214 233.47656758626314) rotate(0 1.1136280662024092 40.00168524328305)"><path d="M14.66 48.07 C12.27 54.08, 10.44 62.79, 2.81 77.51 M12.6 49.25 C10 59.71, 6.53 69.04, 2.43 77.59" stroke="#000000" stroke-width="1" fill="none"></path></g></g><mask></mask><g stroke-linecap="round"><g transform="translate(755.2889760335281 378.2474824974462) rotate(0 -56.08701522721583 1.3503179692197875)"><path d="M-0.38 0.86 C-19.11 1.4, -94.13 2.26, -113.28 2.44 M1.62 0.26 C-17.11 0.51, -94.7 0.09, -113.79 0.59" stroke="#000000" stroke-width="1" fill="none"></path></g><g transform="translate(755.2889760335281 378.2474824974462) rotate(0 -56.08701522721583 1.3503179692197875)"><path d="M-84.26 -8.52 C-91.11 -9.58, -98.15 -6.75, -112.27 0.74 M-86.49 -10.42 C-96.04 -6.94, -107.79 -2.6, -112.82 0.07" stroke="#000000" stroke-width="1" fill="none"></path></g><g transform="translate(755.2889760335281 378.2474824974462) rotate(0 -56.08701522721583 1.3503179692197875)"><path d="M-84.09 12 C-90.84 6.4, -97.91 4.69, -112.27 0.74 M-86.32 10.1 C-95.82 5.83, -107.63 2.43, -112.82 0.07" stroke="#000000" stroke-width="1" fill="none"></path></g></g><mask></mask><g stroke-linecap="round"><g transform="translate(379.33052062988247 383.17708333333337) rotate(0 -42.897713450277195 -0.48100582664832814)"><path d="M-0.22 -1.08 C-14.21 -1.2, -70.59 -0.12, -84.89 -0.32 M-1.79 0.96 C-15.82 0.5, -71.36 -1.52, -85.58 -1.92" stroke="#000000" stroke-width="1" fill="none"></path></g><g transform="translate(379.33052062988247 383.17708333333337) rotate(0 -42.897713450277195 -0.48100582664832814)"><path d="M-58.87 -10.45 C-61.77 -10.26, -71.39 -9.12, -85.04 -2.76 M-57.85 -10.72 C-64 -9.08, -72.51 -5.27, -86.02 -2.49" stroke="#000000" stroke-width="1" fill="none"></path></g><g transform="translate(379.33052062988247 383.17708333333337) rotate(0 -42.897713450277195 -0.48100582664832814)"><path d="M-59.55 10.06 C-62.35 5.67, -71.82 2.24, -85.04 -2.76 M-58.52 9.79 C-64.6 5.72, -72.92 3.81, -86.02 -2.49" stroke="#000000" stroke-width="1" fill="none"></path></g></g><mask></mask><g stroke-linecap="round"><g transform="translate(149.09752292160636 459.565938313802) rotate(0 0.08599400946872038 40.712706500925094)"><path d="M-0.8 -0.03 C-0.79 13.45, 0.34 67.53, 0.39 80.9 M0.98 -1.09 C0.78 12.6, -0.8 68.8, -0.66 82.52" stroke="#000000" stroke-width="1" fill="none"></path></g><g transform="translate(149.09752292160636 459.565938313802) rotate(0 0.08599400946872038 40.712706500925094)"><path d="M-10.64 53.86 C-7.06 61.69, -5.01 72.62, -1.37 82.57 M-10.3 53.79 C-6.76 64.4, -2.72 73.98, -1.52 83.41" stroke="#000000" stroke-width="1" fill="none"></path></g><g transform="translate(149.09752292160636 459.565938313802) rotate(0 0.08599400946872038 40.712706500925094)"><path d="M9.88 54.11 C6.75 61.71, 2.08 72.57, -1.37 82.57 M10.22 54.04 C6.56 64.54, 3.41 74.04, -1.52 83.41" stroke="#000000" stroke-width="1" fill="none"></path></g></g><mask></mask><g transform="translate(145.2358245849607 10) rotate(0 275.5 22.5)"><text x="0" y="0" font-family="Virgil, Segoe UI Emoji" font-size="36px" fill="#000000" text-anchor="start" style="white-space: pre;" direction="ltr" dominant-baseline="text-before-edge">Project Data Science Lifecycle</text></g></svg>